<svg width="313" height="196" viewBox="0 0 313 196" fill="none" xmlns="http://www.w3.org/2000/svg">
<path d="M89.1586 134.22H92.1825L86.7059 120.348H83.7531L78.2765 134.22H81.3005L82.3246 131.446H88.1229L89.1586 134.22ZM85.1821 123.742H85.2533L87.2656 129.136H83.1819L85.1821 123.742ZM105.56 120.348H102.679V129.755L102.607 129.767L96.3564 120.348H93.4753V134.22H96.3564V124.789L96.428 124.777L102.679 134.22H105.56V120.348ZM113.603 134.22C115.325 134.22 116.766 133.69 117.925 132.63C119.084 131.571 119.663 130.207 119.663 128.54V126.04C119.663 124.381 119.084 123.017 117.925 121.949C116.766 120.882 115.325 120.348 113.603 120.348H108.376V134.22H113.603ZM113.603 122.646C114.5 122.646 115.252 122.969 115.859 123.616C116.467 124.263 116.77 125.067 116.77 126.028V128.54C116.77 129.517 116.469 130.326 115.865 130.969C115.262 131.612 114.508 131.934 113.603 131.934H111.258V122.646H113.603ZM136.786 134.22H139.81L134.333 120.348H131.38L125.904 134.22H128.928L129.952 131.446H135.75L136.786 134.22ZM132.809 123.742H132.88L134.893 129.136H130.809L132.809 123.742ZM146.841 128.921C147.587 128.921 148.155 129.1 148.544 129.457C148.933 129.814 149.127 130.33 149.127 131.005V132.16C149.127 132.565 149.139 132.97 149.163 133.375C149.187 133.78 149.246 134.062 149.341 134.22H152.318V134.03C152.207 133.871 152.129 133.603 152.086 133.226C152.042 132.849 152.02 132.498 152.02 132.172V130.993C152.02 130.152 151.832 129.447 151.455 128.879C151.078 128.312 150.456 127.909 149.591 127.671C150.361 127.345 150.945 126.919 151.342 126.391C151.739 125.863 151.937 125.23 151.937 124.492C151.937 123.205 151.463 122.193 150.514 121.455C149.566 120.717 148.262 120.348 146.603 120.348H141.102V134.22H143.984V128.921H146.841ZM143.984 122.646H146.603C147.413 122.646 148.022 122.833 148.431 123.205C148.839 123.579 149.044 124.067 149.044 124.67C149.044 125.282 148.841 125.758 148.436 126.099C148.032 126.44 147.42 126.611 146.603 126.611H143.984V122.646ZM164.624 120.348H153.42V122.646H157.54V134.22H160.433V122.646H164.624V120.348ZM173.524 131.684C173.048 131.994 172.346 132.148 171.417 132.148C170.559 132.148 169.853 131.982 169.298 131.648C168.742 131.315 168.46 130.779 168.452 130.041H165.678L165.666 130.112C165.618 131.517 166.136 132.589 167.22 133.327C168.303 134.065 169.703 134.435 171.417 134.435C173.155 134.435 174.54 134.077 175.572 133.363C176.604 132.648 177.12 131.676 177.12 130.446C177.12 129.247 176.709 128.332 175.887 127.701C175.066 127.07 173.802 126.556 172.096 126.159C170.825 125.881 169.986 125.595 169.577 125.301C169.168 125.008 168.964 124.607 168.964 124.099C168.964 123.615 169.173 123.219 169.589 122.914C170.006 122.608 170.643 122.455 171.5 122.455C172.341 122.455 172.978 122.64 173.411 123.009C173.843 123.378 174.06 123.88 174.06 124.515H176.834L176.858 124.444C176.898 123.118 176.439 122.072 175.483 121.306C174.526 120.54 173.199 120.157 171.5 120.157C169.841 120.157 168.524 120.524 167.547 121.259C166.571 121.993 166.083 122.944 166.083 124.11C166.083 125.349 166.49 126.276 167.303 126.891C168.117 127.506 169.416 128.016 171.203 128.421C172.346 128.675 173.137 128.959 173.578 129.273C174.018 129.586 174.239 129.985 174.239 130.469C174.239 130.969 174.001 131.374 173.524 131.684Z" fill="#B4975A"/>
<path d="M54.5447 116.2C54.0686 116.51 53.3661 116.665 52.4372 116.665C51.5799 116.665 50.8736 116.498 50.3182 116.164C49.7624 115.831 49.4806 115.295 49.4729 114.557H46.6985L46.6865 114.628C46.6389 116.033 47.1568 117.105 48.2405 117.843C49.3238 118.581 50.7226 118.951 52.4372 118.951C54.1754 118.951 55.5606 118.593 56.5925 117.879C57.6244 117.165 58.1403 116.192 58.1403 114.962C58.1403 113.763 57.7296 112.848 56.9079 112.217C56.0866 111.586 54.8226 111.072 53.1161 110.675C51.8458 110.397 51.0063 110.111 50.5976 109.818C50.1889 109.524 49.9845 109.123 49.9845 108.615C49.9845 108.131 50.1931 107.736 50.6096 107.43C51.0264 107.124 51.6635 106.972 52.5208 106.972C53.3619 106.972 53.9989 107.156 54.4316 107.525C54.864 107.894 55.0803 108.396 55.0803 109.031H57.8547L57.8783 108.96C57.9181 107.634 57.4595 106.588 56.5031 105.822C55.5467 105.056 54.2192 104.673 52.5208 104.673C50.8616 104.673 49.5441 105.04 48.568 105.775C47.5914 106.509 47.1034 107.46 47.1034 108.627C47.1034 109.865 47.5102 110.792 48.3237 111.407C49.1373 112.022 50.437 112.532 52.2228 112.937C53.3661 113.191 54.1576 113.475 54.5981 113.789C55.0389 114.102 55.2591 114.501 55.2591 114.985C55.2591 115.485 55.0207 115.89 54.5447 116.2ZM65.8858 114.092C67.5686 114.092 68.9082 113.666 69.9041 112.812C70.9003 111.959 71.3984 110.85 71.3984 109.484C71.3984 108.127 70.9003 107.017 69.9041 106.156C68.9082 105.295 67.5686 104.864 65.8858 104.864H60.1351V118.736H63.0166V114.092H65.8858ZM63.0166 107.162H65.8858C66.7272 107.162 67.3743 107.392 67.8268 107.853C68.2789 108.313 68.5053 108.865 68.5053 109.508C68.5053 110.143 68.2789 110.681 67.8268 111.121C67.3743 111.562 66.7272 111.782 65.8858 111.782H63.0166V107.162ZM76.1436 104.864H73.2624V118.736H76.1436V104.864ZM84.6155 113.437C85.3618 113.437 85.9292 113.616 86.3181 113.973C86.7071 114.33 86.9018 114.847 86.9018 115.521V116.676C86.9018 117.081 86.9134 117.486 86.9374 117.891C86.961 118.296 87.0206 118.578 87.1158 118.736H90.0926V118.546C89.9811 118.387 89.9037 118.119 89.8604 117.742C89.8166 117.365 89.7949 117.014 89.7949 116.688V115.509C89.7949 114.668 89.6061 113.963 89.2291 113.396C88.8521 112.828 88.2309 112.425 87.3659 112.187C88.1357 111.862 88.719 111.435 89.1161 110.907C89.5128 110.379 89.7113 109.746 89.7113 109.008C89.7113 107.722 89.2372 106.71 88.2886 105.971C87.3399 105.233 86.0364 104.864 84.3775 104.864H78.8769V118.736H81.758V113.437H84.6155ZM81.758 107.162H84.3775C85.1872 107.162 85.796 107.349 86.2051 107.722C86.6138 108.095 86.8182 108.583 86.8182 109.186C86.8182 109.798 86.6158 110.274 86.2109 110.615C85.8061 110.957 85.195 111.127 84.3775 111.127H81.758V107.162ZM95.2186 104.864H92.3374V118.736H95.2186V104.864ZM108.179 104.864H96.9757V107.162H101.095V118.736H103.988V107.162H108.179V104.864ZM119.092 104.864V113.89C119.092 114.779 118.808 115.464 118.241 115.944C117.673 116.425 116.893 116.665 115.901 116.665C114.909 116.665 114.127 116.422 113.555 115.938C112.984 115.454 112.698 114.771 112.698 113.89V104.864H109.817V113.89C109.817 115.478 110.377 116.718 111.496 117.611C112.615 118.504 114.083 118.951 115.901 118.951C117.719 118.951 119.185 118.504 120.3 117.611C121.416 116.718 121.973 115.478 121.973 113.89V104.864H119.092ZM133.838 118.736H136.862L131.386 104.864H128.433L122.956 118.736H125.98L127.004 115.962H132.802L133.838 118.736ZM129.862 108.258H129.933L131.945 113.652H127.861L129.862 108.258ZM141.036 104.864H138.155V118.736H147.049V116.45H141.036V104.864ZM151.699 104.864H148.818V118.736H151.699V104.864ZM164.659 104.864H153.456V107.162H157.575V118.736H160.469V107.162H164.659V104.864ZM168.357 104.864H165.178L170.036 113.759V118.736H172.929V113.89L177.858 104.864H174.679L171.524 111.318L168.357 104.864Z" fill="#B4975A"/>
<path d="M97.0986 94.8693C97.0986 93.1862 96.5331 91.819 95.4018 90.7672C94.2708 89.7151 92.8043 89.1894 91.0026 89.1894C89.2006 89.1894 87.7383 89.7151 86.6151 90.7672C85.4919 91.819 84.9307 93.1862 84.9307 94.8693V97.7629C84.9307 99.4537 85.4962 100.827 86.6271 101.883C87.7581 102.939 89.2207 103.467 91.0146 103.467C92.8163 103.467 94.2809 102.939 95.408 101.883C96.535 100.827 97.0986 99.4537 97.0986 97.7629V94.8693ZM94.2054 97.7629C94.2054 98.7871 93.9198 99.6128 93.3481 100.24C92.7769 100.867 91.9985 101.181 91.0146 101.181C90.0223 101.181 89.2424 100.867 88.675 100.24C88.1076 99.6128 87.8239 98.7871 87.8239 97.7629V94.8573C87.8239 93.8493 88.1052 93.0356 88.6692 92.4163C89.2327 91.7969 90.0103 91.4876 91.0026 91.4876C91.9869 91.4876 92.7668 91.7969 93.3423 92.4163C93.9175 93.0356 94.2054 93.8493 94.2054 94.8573V97.7629ZM108.285 95.2502H102.153V91.6781H109.321V89.3799H99.2722V103.252H102.153V97.5604H108.285V95.2502ZM119.455 89.3799H116.573V103.252H125.467V100.966H119.455V89.3799ZM130.117 89.3799H127.236V103.252H130.117V89.3799ZM144.483 95.8936H138.756V98.0009H141.601V100.526C141.363 100.708 141.008 100.861 140.536 100.984C140.063 101.107 139.446 101.169 138.684 101.169C137.644 101.169 136.817 100.849 136.202 100.21C135.586 99.571 135.279 98.7554 135.279 97.7629V94.8573C135.279 93.8888 135.585 93.0852 136.196 92.4461C136.807 91.807 137.605 91.4876 138.589 91.4876C139.525 91.4876 140.236 91.668 140.72 92.0292C141.204 92.3907 141.446 92.9284 141.446 93.643H144.221L144.244 93.5714C144.284 92.2378 143.804 91.1741 142.804 90.3801C141.804 89.5862 140.399 89.1894 138.589 89.1894C136.779 89.1894 135.295 89.7174 134.136 90.773C132.977 91.829 132.398 93.1943 132.398 94.8693V97.7629C132.398 99.4537 132.979 100.825 134.142 101.877C135.305 102.929 136.819 103.455 138.684 103.455C140.176 103.455 141.405 103.245 142.369 102.824C143.334 102.403 144.038 101.915 144.483 101.359V95.8936ZM158.872 89.3799H155.967V95.3218H149.799V89.3799H146.918V103.252H149.799V97.632H155.967V103.252H158.872V89.3799ZM171.868 89.3799H160.664V91.6781H164.784V103.252H167.677V91.6781H171.868V89.3799Z" fill="#B4975A"/>
<path d="M11.2037 73.8959H0V76.1941H4.11968V87.7683H7.01282V76.1941H11.2037V73.8959ZM24.9859 73.8959H22.0808V79.8379H15.9133V73.8959H13.0321V87.7683H15.9133V82.1481H22.0808V87.7683H24.9859V73.8959ZM36.6367 79.4093H30.636V76.1941H37.6604V73.8959H27.7544V87.7683H37.6604V85.4821H30.636V81.7192H36.6367V79.4093ZM54.4139 79.7666H48.282V76.1941H55.4496V73.8959H45.4009V87.7683H48.282V82.0764H54.4139V79.7666ZM69.053 79.3853C69.053 77.7026 68.4876 76.335 67.3566 75.2833C66.2253 74.2315 64.7588 73.7055 62.9571 73.7055C61.155 73.7055 59.6928 74.2315 58.5696 75.2833C57.4464 76.335 56.8852 77.7026 56.8852 79.3853V82.2789C56.8852 83.9697 57.4507 85.3436 58.5816 86.3992C59.7125 87.4548 61.1752 87.9828 62.9691 87.9828C64.7708 87.9828 66.2354 87.4548 67.3624 86.3992C68.4895 85.3436 69.053 83.9697 69.053 82.2789V79.3853ZM66.1599 82.2789C66.1599 83.3032 65.8743 84.1288 65.3026 84.7559C64.7313 85.383 63.953 85.6966 62.9691 85.6966C61.9767 85.6966 61.1968 85.383 60.6294 84.7559C60.062 84.1288 59.7783 83.3032 59.7783 82.2789V79.3733C59.7783 78.3653 60.0597 77.5517 60.6236 76.9323C61.1872 76.3133 61.9647 76.0037 62.9571 76.0037C63.9414 76.0037 64.7213 76.3133 65.2968 76.9323C65.8719 77.5517 66.1599 78.3653 66.1599 79.3733V82.2789ZM80.3109 73.8959V82.9219C80.3109 83.811 80.0272 84.4958 79.4598 84.9762C78.892 85.4566 78.1122 85.6966 77.1202 85.6966C76.1278 85.6966 75.346 85.4547 74.7747 84.97C74.203 84.4861 73.9174 83.8033 73.9174 82.9219V73.8959H71.0362V82.9219C71.0362 84.5097 71.5959 85.75 72.7148 86.643C73.8342 87.5365 75.3026 87.9828 77.1202 87.9828C78.9377 87.9828 80.4042 87.5365 81.5193 86.643C82.6344 85.75 83.1921 84.5097 83.1921 82.9219V73.8959H80.3109ZM97.8196 73.8959H94.9384V83.3032L94.8668 83.3152L88.6161 73.8959H85.7349V87.7683H88.6161V78.3375L88.6877 78.3255L94.9384 87.7683H97.8196V73.8959ZM105.863 87.7683C107.585 87.7683 109.026 87.2388 110.185 86.1789C111.344 85.119 111.923 83.7557 111.923 82.0884V79.5878C111.923 77.9287 111.344 76.5653 110.185 75.4973C109.026 74.4297 107.585 73.8959 105.863 73.8959H100.636V87.7683H105.863ZM105.863 76.1941C106.76 76.1941 107.512 76.5177 108.119 77.1646C108.726 77.8118 109.03 78.6154 109.03 79.5758V82.0884C109.03 83.0651 108.728 83.8745 108.125 84.5175C107.522 85.1608 106.768 85.4821 105.863 85.4821H103.517V76.1941H105.863ZM123.705 87.7683H126.729L121.252 73.8959H118.3L112.823 87.7683H115.847L116.871 84.994H122.669L123.705 87.7683ZM119.728 77.2896H119.8L121.812 82.6838H117.728L119.728 77.2896ZM137.487 73.8959H126.283V76.1941H130.403V87.7683H133.296V76.1941H137.487V73.8959ZM142.196 73.8959H139.315V87.7683H142.196V73.8959ZM156.621 79.3853C156.621 77.7026 156.056 76.335 154.925 75.2833C153.794 74.2315 152.327 73.7055 150.525 73.7055C148.723 73.7055 147.261 74.2315 146.138 75.2833C145.015 76.335 144.454 77.7026 144.454 79.3853V82.2789C144.454 83.9697 145.019 85.3436 146.15 86.3992C147.281 87.4548 148.744 87.9828 150.537 87.9828C152.339 87.9828 153.804 87.4548 154.931 86.3992C156.058 85.3436 156.621 83.9697 156.621 82.2789V79.3853ZM153.728 82.2789C153.728 83.3032 153.443 84.1288 152.871 84.7559C152.299 85.383 151.521 85.6966 150.537 85.6966C149.545 85.6966 148.765 85.383 148.198 84.7559C147.63 84.1288 147.347 83.3032 147.347 82.2789V79.3733C147.347 78.3653 147.628 77.5517 148.192 76.9323C148.756 76.3133 149.533 76.0037 150.525 76.0037C151.51 76.0037 152.29 76.3133 152.865 76.9323C153.44 77.5517 153.728 78.3653 153.728 79.3733V82.2789ZM170.88 73.8959H167.999V83.3032L167.927 83.3152L161.676 73.8959H158.795V87.7683H161.676V78.3375L161.748 78.3255L167.999 87.7683H170.88V73.8959Z" fill="#B4975A"/>
<path d="M224.907 120.267C226.502 119.241 228.416 118.752 230.31 118.849C232.841 118.976 237.042 120.59 237.931 123.253C238.36 124.582 238.222 126.022 237.67 127.292C234.524 135.427 221.794 146.952 212.095 146.715C203.956 146.558 199.134 142.096 193.934 137.039C197.889 137.415 200.765 137.337 204.447 136.827C211.063 150.657 223.248 143.149 226.261 129.746C226.715 128.562 222.513 126.882 222.299 124.155C222.298 123.864 222.298 123.574 222.3 123.286C222.541 121.915 223.752 120.922 224.907 120.267Z" fill="#B4975A"/>
<path d="M223.56 98.6729C223.516 101.8 221.455 104.704 218.695 106.071C215.742 107.457 211.99 107.121 209.505 104.946C209.102 104.534 208.692 104.124 208.281 103.72C207.185 102.581 206.564 101.001 206.383 99.4417C206.358 99.3806 206.308 99.2606 206.282 99.1998C206.427 98.239 206.185 97.224 206.537 96.2996C206.849 95.0067 207.412 93.7305 208.358 92.774C208.72 92.4174 209.078 92.0648 209.431 91.7021C210.184 90.8338 211.298 90.4235 212.339 90.0151C213.499 89.6032 214.729 89.7093 215.932 89.645C217.397 89.8893 218.888 90.3643 220.081 91.2952C221.894 92.6842 223.318 94.826 223.462 97.1338C223.587 97.3673 223.56 97.6409 223.532 97.8953C223.466 98.1535 223.536 98.4144 223.56 98.6729Z" fill="#B4975A"/>
<path d="M192.309 89.7825C191.907 91.6363 190.899 93.3353 189.492 94.6062C187.612 96.3067 183.501 98.1361 180.99 96.8819C179.746 96.2459 178.825 95.1295 178.318 93.8401C174.791 85.8643 175.645 68.712 182.67 62.0195C188.537 56.3752 195.101 56.1201 202.353 56.0175C199.29 58.5499 197.313 60.6391 195.069 63.6035C180.613 58.5031 177.305 72.4289 184.65 84.0372C185.166 85.1954 189.326 83.4121 191.405 85.1888C191.611 85.394 191.817 85.5988 192.019 85.8043C192.817 86.9436 192.663 88.502 192.309 89.7825Z" fill="#B4975A"/>
<path d="M204.935 76.278C203.34 77.3038 201.426 77.7931 199.532 77.6959C197.001 77.5693 192.8 75.9551 191.912 73.2927C191.482 71.9638 191.62 70.523 192.172 69.2529C195.318 61.1184 208.048 49.5938 217.747 49.8299C225.886 49.9874 230.708 54.4491 235.909 59.5058C231.953 59.1299 229.077 59.2085 225.395 59.7183C218.779 45.8885 206.594 53.3958 203.581 66.7987C203.127 67.9832 207.329 69.6632 207.543 72.3903C207.544 72.6814 207.544 72.9714 207.542 73.2594C207.301 74.6297 206.09 75.6234 204.935 76.278Z" fill="#B4975A"/>
<path d="M223.41 75.6576C221.557 75.255 219.858 74.2474 218.587 72.8395C216.887 70.9598 215.058 66.8476 216.312 64.3365C216.947 63.0932 218.064 62.1715 219.353 61.6648C227.328 58.1372 244.477 58.9907 251.169 66.0173C256.812 71.8846 257.068 78.4494 257.17 85.7028C254.638 82.6393 252.549 80.6616 249.586 78.418C254.685 63.9595 240.761 60.651 229.155 67.9973C227.996 68.5141 229.779 72.6739 228.003 74.7537C227.798 74.9601 227.593 75.1652 227.388 75.3669C226.248 76.1651 224.69 76.0118 223.41 75.6576Z" fill="#B4975A"/>
<path d="M236.913 88.2848C235.887 86.6895 235.398 84.7753 235.495 82.8813C235.621 80.35 237.235 76.1485 239.897 75.2597C241.226 74.83 242.667 74.9678 243.937 75.521C252.07 78.6669 263.593 91.3986 263.357 101.099C263.199 109.24 258.738 114.062 253.682 119.263C254.058 115.307 253.98 112.431 253.47 108.748C267.298 102.131 259.791 89.9442 246.39 86.9307C245.207 86.477 243.526 90.6793 240.8 90.8938C240.509 90.8946 240.219 90.8946 239.931 90.8922C238.561 90.6511 237.567 89.4406 236.913 88.2848Z" fill="#B4975A"/>
<path d="M237.533 106.763C237.935 104.909 238.943 103.21 240.35 101.939C242.23 100.239 246.342 98.4095 248.852 99.6633C250.096 100.299 251.017 101.415 251.524 102.705C255.051 110.681 254.197 127.833 247.172 134.526C241.305 140.17 234.741 140.425 227.489 140.528C230.552 137.996 232.53 135.906 234.773 132.942C249.229 138.042 252.537 124.116 245.192 112.508C244.676 111.35 240.517 113.133 238.437 111.356C238.231 111.151 238.025 110.946 237.823 110.741C237.025 109.602 237.179 108.043 237.533 106.763Z" fill="#B4975A"/>
<path d="M213.415 20.8922C213.514 20.0057 214.364 19.5761 214.841 20.1679V23.7908H214.922H215.002V20.1679C215.479 19.5761 216.328 20.0057 216.427 20.8922C216.437 20.9731 216.487 21.0555 216.513 20.9963C216.803 20.3502 217.095 18.6044 215.774 18.3381C215.854 17.2442 215.264 17.2364 215.002 16.7317V1H214.922H214.841V16.7317C214.579 17.2364 213.988 17.2442 214.069 18.3381C212.747 18.6044 213.039 20.3502 213.33 20.9963C213.356 21.0555 213.406 20.9731 213.415 20.8922Z" fill="#B4975A"/>
<path d="M213.415 20.8922C213.514 20.0057 214.364 19.5761 214.841 20.1679V23.7908H214.922H215.002V20.1679C215.479 19.5761 216.328 20.0057 216.427 20.8922C216.437 20.9731 216.487 21.0555 216.513 20.9963C216.803 20.3502 217.095 18.6044 215.774 18.3381C215.854 17.2442 215.264 17.2364 215.002 16.7317V1H214.922H214.841V16.7317C214.579 17.2364 213.988 17.2442 214.069 18.3381C212.747 18.6044 213.039 20.3502 213.33 20.9963C213.356 21.0555 213.406 20.9731 213.415 20.8922Z" stroke="#B4975A" stroke-miterlimit="10" stroke-linecap="round"/>
<path d="M219.367 39.9191C219.216 39.2975 218.642 39.3745 218.535 39.4283C218.535 39.4283 217.879 36.0273 215.235 34.4398C215.168 34.3736 215.103 34.3132 215.041 34.2586C216.239 33.2289 219.433 29.7783 215.453 24.9489C215.302 24.7271 215.25 24.5335 215.279 24.3799C215.289 24.5978 215.466 24.7732 215.687 24.7732C215.914 24.7732 216.098 24.5893 216.098 24.3621C216.098 24.1437 215.926 23.9688 215.71 23.956C215.586 23.9119 215.415 23.9452 215.283 24.0547C215.189 24.1344 214.913 24.4399 215.324 25.0449C215.7 25.5021 216.011 25.9465 216.264 26.3773C216.504 27.8363 216.549 29.1121 215.967 30.4871C215.52 31.6577 216.379 31.8234 216.807 31.6163C216.292 32.8515 215.42 33.7244 214.921 34.1506C214.422 33.7244 213.55 32.8515 213.035 31.6163C213.463 31.8234 214.322 31.6577 213.875 30.4871C213.294 29.1121 213.337 27.8363 213.578 26.3773C213.831 25.9465 214.142 25.5021 214.518 25.0449C214.929 24.4399 214.653 24.1344 214.558 24.0547C214.427 23.9452 214.256 23.9119 214.132 23.956C213.916 23.9688 213.744 24.1437 213.744 24.3621C213.744 24.5893 213.928 24.7732 214.155 24.7732C214.376 24.7732 214.553 24.5978 214.563 24.3799C214.592 24.5335 214.54 24.7271 214.39 24.9489C210.409 29.7783 213.603 33.2289 214.801 34.2586C214.739 34.3132 214.674 34.3736 214.607 34.4398C211.963 36.0273 211.307 39.4283 211.307 39.4283C211.2 39.3745 210.626 39.2975 210.475 39.9191C210.475 39.9191 210.984 39.7953 211.305 39.9818C211.305 39.9818 211.135 41.7873 211.892 42.2878C212.433 42.6462 212.868 42.0637 213 41.8569C213.389 42.7384 213.99 43.5819 214.804 44.3835C214.24 44.9243 213.591 45.4488 212.828 45.9501L212.732 46.0128L212.825 46.0813C212.837 46.0903 212.867 46.1081 212.912 46.1332C214.344 46.9275 214.752 47.9352 214.842 48.6401L214.841 51.2793H214.921H215.001L215.001 48.6401C215.09 47.9352 215.498 46.9275 216.93 46.1332C216.975 46.1081 217.005 46.0903 217.017 46.0813L217.109 46.0128L217.014 45.9501C216.251 45.4488 215.602 44.9243 215.038 44.3835C215.852 43.5819 216.453 42.7384 216.842 41.8569C216.974 42.0637 217.409 42.6462 217.95 42.2878C218.706 41.7873 218.537 39.9818 218.537 39.9818C218.858 39.7953 219.367 39.9191 219.367 39.9191ZM216.817 46.0124C215.594 46.7015 215.105 47.545 214.921 48.2394C214.737 47.545 214.248 46.7015 213.025 46.0124C213.748 45.5293 214.377 45.0261 214.921 44.507C215.465 45.0261 216.094 45.5293 216.817 46.0124ZM217.209 39.7287C217.114 41.3557 216.338 42.8746 214.921 44.2701C213.505 42.8746 212.728 41.3557 212.634 39.7287C212.486 37.1762 214.035 35.1362 214.921 34.3658C215.807 35.1362 217.356 37.1762 217.209 39.7287Z" fill="#B4975A"/>
<path d="M219.367 39.9191C219.216 39.2975 218.642 39.3745 218.535 39.4283C218.535 39.4283 217.879 36.0273 215.235 34.4398C215.168 34.3736 215.103 34.3132 215.041 34.2586C216.239 33.2289 219.433 29.7783 215.453 24.9489C215.302 24.7271 215.25 24.5335 215.279 24.3799C215.289 24.5978 215.466 24.7732 215.687 24.7732C215.914 24.7732 216.098 24.5893 216.098 24.3621C216.098 24.1437 215.926 23.9688 215.71 23.956C215.586 23.9119 215.415 23.9452 215.283 24.0547C215.189 24.1344 214.913 24.4399 215.324 25.0449C215.7 25.5021 216.011 25.9465 216.264 26.3773C216.504 27.8363 216.549 29.1121 215.967 30.4871C215.52 31.6577 216.379 31.8234 216.807 31.6163C216.292 32.8515 215.42 33.7244 214.921 34.1506C214.422 33.7244 213.55 32.8515 213.035 31.6163C213.463 31.8234 214.322 31.6577 213.875 30.4871C213.294 29.1121 213.337 27.8363 213.578 26.3773C213.831 25.9465 214.142 25.5021 214.518 25.0449C214.929 24.4399 214.653 24.1344 214.558 24.0547C214.427 23.9452 214.256 23.9119 214.132 23.956C213.916 23.9688 213.744 24.1437 213.744 24.3621C213.744 24.5893 213.928 24.7732 214.155 24.7732C214.376 24.7732 214.553 24.5978 214.563 24.3799C214.592 24.5335 214.54 24.7271 214.39 24.9489C210.409 29.7783 213.603 33.2289 214.801 34.2586C214.739 34.3132 214.674 34.3736 214.607 34.4398C211.963 36.0273 211.307 39.4283 211.307 39.4283C211.2 39.3745 210.626 39.2975 210.475 39.9191C210.475 39.9191 210.984 39.7953 211.305 39.9818C211.305 39.9818 211.135 41.7873 211.892 42.2878C212.433 42.6462 212.868 42.0637 213 41.8569C213.389 42.7384 213.99 43.5819 214.804 44.3835C214.24 44.9243 213.591 45.4488 212.828 45.9501L212.732 46.0128L212.825 46.0813C212.837 46.0903 212.867 46.1081 212.912 46.1332C214.344 46.9275 214.752 47.9352 214.842 48.6401L214.841 51.2793H214.921H215.001L215.001 48.6401C215.09 47.9352 215.498 46.9275 216.93 46.1332C216.975 46.1081 217.005 46.0903 217.017 46.0813L217.109 46.0128L217.014 45.9501C216.251 45.4488 215.602 44.9243 215.038 44.3835C215.852 43.5819 216.453 42.7384 216.842 41.8569C216.974 42.0637 217.409 42.6462 217.95 42.2878C218.706 41.7873 218.537 39.9818 218.537 39.9818C218.858 39.7953 219.367 39.9191 219.367 39.9191ZM216.817 46.0124C215.594 46.7015 215.105 47.545 214.921 48.2394C214.737 47.545 214.248 46.7015 213.025 46.0124C213.748 45.5293 214.377 45.0261 214.921 44.507C215.465 45.0261 216.094 45.5293 216.817 46.0124ZM217.209 39.7287C217.114 41.3557 216.338 42.8746 214.921 44.2701C213.505 42.8746 212.728 41.3557 212.634 39.7287C212.486 37.1762 214.035 35.1362 214.921 34.3658C215.807 35.1362 217.356 37.1762 217.209 39.7287Z" stroke="#B4975A" stroke-miterlimit="10" stroke-linecap="round"/>
<path d="M268.564 42.4912C269.261 41.9349 270.166 42.2314 270.085 42.9874L267.524 45.5493L267.58 45.6062L267.637 45.6627L270.198 43.1005C270.954 43.0196 271.251 43.9242 270.694 44.6214C270.644 44.6849 270.62 44.7782 270.681 44.7553C271.343 44.5037 272.783 43.4756 272.038 42.353C272.868 41.6365 272.456 41.2134 272.627 40.671L283.874 29.4228L283.817 29.3666L283.761 29.3097L272.514 40.558C271.972 40.7291 271.549 40.3169 270.833 41.1476C269.71 40.4012 268.682 41.8424 268.43 42.5047C268.408 42.5651 268.501 42.5419 268.564 42.4912Z" fill="#B4975A"/>
<path d="M268.564 42.4912C269.261 41.9349 270.166 42.2314 270.085 42.9874L267.524 45.5493L267.58 45.6062L267.637 45.6627L270.198 43.1005C270.954 43.0196 271.251 43.9242 270.694 44.6214C270.644 44.6849 270.62 44.7782 270.681 44.7553C271.343 44.5037 272.783 43.4756 272.038 42.353C272.868 41.6365 272.456 41.2134 272.627 40.671L283.874 29.4228L283.817 29.3666L283.761 29.3097L272.514 40.558C271.972 40.7291 271.549 40.3169 270.833 41.1476C269.71 40.4012 268.682 41.8424 268.43 42.5047C268.408 42.5651 268.501 42.5419 268.564 42.4912Z" stroke="#B4975A" stroke-miterlimit="10" stroke-linecap="round"/>
<path d="M259.321 60.1549C259.654 59.609 259.193 59.2568 259.079 59.2196C259.079 59.2196 261.02 56.3505 260.273 53.3582C260.273 53.2641 260.269 53.1751 260.264 53.0926C261.839 53.2119 266.537 53.0307 267.137 46.8008C267.187 46.5375 267.287 46.3637 267.417 46.2758C267.27 46.4369 267.271 46.6862 267.427 46.8422C267.587 47.0024 267.848 47.0024 268.008 46.8422C268.163 46.6881 268.165 46.4423 268.021 46.2809C267.965 46.162 267.82 46.0645 267.65 46.0486C267.527 46.0386 267.116 46.0591 266.978 46.7775C266.921 47.3675 266.827 47.9013 266.701 48.3851C265.839 49.5859 264.969 50.5196 263.586 51.0809C262.442 51.5926 262.932 52.3173 263.381 52.4733C262.144 52.9827 260.909 52.9831 260.256 52.9316C260.204 52.2774 260.204 51.043 260.714 49.8058C260.87 50.2548 261.594 50.7449 262.106 49.601C262.667 48.2175 263.6 47.3466 264.801 46.4845C265.285 46.3591 265.819 46.265 266.408 46.2081C267.127 46.0707 267.148 45.6592 267.137 45.5357C267.122 45.3662 267.024 45.2214 266.905 45.1645C266.744 45.0216 266.498 45.0232 266.344 45.1776C266.183 45.3383 266.184 45.5984 266.344 45.7587C266.5 45.9155 266.749 45.9162 266.91 45.7691C266.822 45.8988 266.649 45.9987 266.386 46.049C260.157 46.6494 259.975 51.348 260.094 52.9227C260.012 52.9177 259.923 52.9142 259.828 52.9134C256.837 52.1663 253.969 54.1076 253.969 54.1076C253.931 53.9938 253.579 53.5335 253.033 53.8668C253.033 53.8668 253.481 54.1386 253.575 54.4974C253.575 54.4974 252.179 55.6541 252.361 56.5432C252.49 57.1796 253.21 57.0747 253.448 57.0217C253.1 57.9205 252.93 58.9421 252.938 60.0844C252.157 60.0678 251.327 59.9799 250.434 59.7952L250.321 59.7716L250.338 59.8854C250.34 59.9005 250.349 59.9342 250.363 59.9834C250.814 61.5585 250.39 62.5591 249.955 63.1208L248.089 64.9866L248.146 65.0435L248.202 65.0996L250.068 63.2334C250.63 62.7983 251.63 62.3741 253.204 62.8247C253.254 62.8394 253.288 62.8483 253.302 62.8502L253.416 62.8669L253.393 62.755C253.208 61.8616 253.12 61.0312 253.104 60.2501C254.246 60.2586 255.267 60.0875 256.165 59.7391C256.113 59.9787 256.008 60.6983 256.645 60.8276C257.533 61.0084 258.689 59.6121 258.689 59.6121C259.049 59.7074 259.321 60.1549 259.321 60.1549ZM253.21 62.6598C251.858 62.2823 250.916 62.5336 250.295 62.894C250.655 62.2723 250.906 61.3305 250.529 59.9783C251.381 60.1479 252.182 60.2369 252.934 60.2547C252.951 61.0069 253.04 61.807 253.21 62.6598ZM257.929 58.4934C256.712 59.5773 255.089 60.1018 253.101 60.0871C253.086 58.0986 253.611 56.4751 254.694 55.2581C256.395 53.3489 258.932 53.0017 260.103 53.0837C260.185 54.2555 259.838 56.7925 257.929 58.4934Z" fill="#B4975A"/>
<path d="M259.321 60.1549C259.654 59.609 259.193 59.2568 259.079 59.2196C259.079 59.2196 261.02 56.3505 260.273 53.3582C260.273 53.2641 260.269 53.1751 260.264 53.0926C261.839 53.2119 266.537 53.0307 267.137 46.8007C267.187 46.5375 267.287 46.3637 267.417 46.2758C267.27 46.4369 267.271 46.6862 267.427 46.8422C267.587 47.0024 267.848 47.0024 268.008 46.8422C268.163 46.6881 268.165 46.4423 268.021 46.2809C267.965 46.162 267.82 46.0645 267.65 46.0486C267.527 46.0386 267.116 46.0591 266.978 46.7775C266.921 47.3675 266.827 47.9013 266.701 48.3851C265.839 49.5859 264.969 50.5196 263.586 51.0809C262.442 51.5926 262.932 52.3173 263.381 52.4733C262.144 52.9827 260.909 52.9831 260.256 52.9316C260.204 52.2774 260.204 51.043 260.714 49.8058C260.87 50.2548 261.594 50.7449 262.106 49.601C262.667 48.2175 263.6 47.3466 264.801 46.4845C265.285 46.3591 265.819 46.265 266.408 46.2081C267.127 46.0707 267.148 45.6592 267.137 45.5357C267.122 45.3662 267.024 45.2214 266.905 45.1645C266.744 45.0216 266.498 45.0232 266.344 45.1776C266.183 45.3383 266.184 45.5984 266.344 45.7587C266.5 45.9155 266.749 45.9162 266.91 45.7691C266.822 45.8988 266.649 45.9987 266.386 46.049C260.157 46.6494 259.975 51.348 260.094 52.9227C260.012 52.9177 259.923 52.9142 259.828 52.9134C256.837 52.1663 253.969 54.1076 253.969 54.1076C253.931 53.9938 253.579 53.5335 253.033 53.8668C253.033 53.8668 253.481 54.1386 253.575 54.4974C253.575 54.4974 252.179 55.6541 252.361 56.5432C252.49 57.1796 253.21 57.0747 253.448 57.0217C253.1 57.9205 252.93 58.9421 252.938 60.0844C252.157 60.0678 251.327 59.9799 250.434 59.7952L250.321 59.7716L250.338 59.8854C250.34 59.9005 250.349 59.9342 250.363 59.9834C250.814 61.5585 250.39 62.5591 249.955 63.1208L248.089 64.9866L248.146 65.0435L248.202 65.0996L250.068 63.2334C250.63 62.7983 251.63 62.3741 253.204 62.8247C253.254 62.8394 253.288 62.8483 253.302 62.8502L253.416 62.8669L253.393 62.755C253.208 61.8616 253.12 61.0312 253.104 60.2501C254.246 60.2586 255.267 60.0875 256.165 59.7391C256.113 59.9787 256.008 60.6983 256.645 60.8276C257.533 61.0084 258.689 59.6121 258.689 59.6121C259.049 59.7074 259.321 60.1549 259.321 60.1549ZM253.21 62.6598C251.858 62.2823 250.916 62.5336 250.295 62.894C250.655 62.2723 250.906 61.3305 250.529 59.9783C251.381 60.1479 252.182 60.2369 252.934 60.2547C252.951 61.0069 253.04 61.807 253.21 62.6598ZM257.929 58.4934C256.712 59.5773 255.089 60.1018 253.101 60.0871C253.086 58.0986 253.611 56.4751 254.694 55.2581C256.395 53.3489 258.932 53.0017 260.103 53.0837C260.185 54.2555 259.838 56.7925 257.929 58.4934Z" stroke="#B4975A" stroke-linecap="round" stroke-linejoin="round"/>
<path d="M292.29 96.7658C293.176 96.8657 293.606 97.7154 293.014 98.1927H289.392V98.2728V98.3529L293.014 98.3525C293.606 98.8298 293.177 99.6795 292.29 99.7786C292.209 99.7879 292.127 99.8378 292.186 99.8641C292.832 100.154 294.578 100.446 294.844 99.1248C295.938 99.2057 295.945 98.6146 296.45 98.3525L312 98.3529L311.999 98.2728V98.1927H296.45C295.945 97.9302 295.938 97.3387 294.844 97.4204C294.578 96.0981 292.832 96.3907 292.186 96.681C292.127 96.7078 292.209 96.7569 292.29 96.7658Z" fill="#B4975A"/>
<path d="M292.29 96.7658C293.176 96.8657 293.606 97.7154 293.014 98.1927H289.392V98.2728V98.3529L293.014 98.3525C293.606 98.8298 293.177 99.6795 292.29 99.7786C292.209 99.7879 292.127 99.8378 292.186 99.8641C292.832 100.154 294.578 100.446 294.844 99.1248C295.938 99.2057 295.945 98.6146 296.45 98.3525L312 98.3529L311.999 98.2728V98.1927H296.45C295.945 97.9302 295.938 97.3387 294.844 97.4204C294.578 96.0981 292.832 96.3907 292.186 96.681C292.127 96.7078 292.209 96.7569 292.29 96.7658Z" stroke="#B4975A" stroke-miterlimit="10" stroke-linecap="round"/>
<path d="M273.265 102.719C273.887 102.568 273.81 101.994 273.756 101.887C273.756 101.887 277.157 101.231 278.744 98.5871C278.811 98.5197 278.871 98.4539 278.926 98.392C279.955 99.5904 283.405 102.785 288.234 98.8042C288.455 98.6536 288.65 98.6014 288.803 98.6308C288.585 98.6409 288.41 98.8178 288.41 99.0384C288.41 99.2652 288.594 99.4491 288.821 99.4495C289.039 99.4499 289.214 99.2769 289.227 99.0616C289.271 98.9378 289.238 98.7663 289.128 98.6347C289.049 98.541 288.743 98.2642 288.138 98.6757C287.681 99.052 287.237 99.3628 286.806 99.616C285.347 99.8556 284.072 99.9005 282.696 99.3191C281.526 98.8716 281.36 99.7309 281.567 100.159C280.333 99.6442 279.46 98.7717 279.033 98.2727C279.46 97.7738 280.333 96.9009 281.568 96.3864C281.36 96.8141 281.526 97.6731 282.696 97.2264C284.072 96.645 285.347 96.6887 286.806 96.9287C287.237 97.1819 287.681 97.4931 288.138 97.8698C288.743 98.2809 289.049 98.0041 289.128 97.9096C289.238 97.7788 289.271 97.6073 289.227 97.483C289.214 97.2682 289.039 97.0956 288.821 97.0956C288.594 97.0956 288.41 97.2798 288.41 97.5063C288.409 97.7273 288.585 97.9042 288.803 97.9143C288.649 97.9437 288.456 97.8914 288.234 97.7412C283.405 93.7603 279.955 96.9547 278.926 98.1523C278.871 98.0904 278.811 98.0254 278.744 97.9576C277.158 95.3141 273.757 94.658 273.757 94.658C273.811 94.5512 273.887 93.9767 273.265 93.8261C273.265 93.8261 273.39 94.3352 273.203 94.6553C273.203 94.6553 271.398 94.4858 270.898 95.2433C270.539 95.7845 271.122 96.2192 271.329 96.3508C270.447 96.7402 269.604 97.3418 268.802 98.1554C268.262 97.5914 267.737 96.9419 267.236 96.1797L267.173 96.0829L267.104 96.1762C267.096 96.1882 267.078 96.2184 267.053 96.2629C266.258 97.6956 265.251 98.1032 264.546 98.193L261.907 98.1926V98.2727V98.3529L264.546 98.3525C265.251 98.4419 266.258 98.8495 267.053 100.281C267.078 100.327 267.096 100.357 267.104 100.369L267.173 100.461L267.236 100.365C267.737 99.6032 268.262 98.9536 268.802 98.3896C269.604 99.2033 270.447 99.8049 271.329 100.194C271.122 100.326 270.539 100.761 270.898 101.302C271.398 102.058 273.203 101.889 273.203 101.889C273.389 102.21 273.265 102.719 273.265 102.719ZM267.173 100.168C266.484 98.9455 265.641 98.457 264.947 98.2727C265.641 98.0877 266.484 97.5996 267.173 96.3763C267.656 97.099 268.16 97.7281 268.679 98.2727C268.159 98.817 267.656 99.446 267.173 100.168ZM273.457 100.56C271.83 100.466 270.311 99.6895 268.916 98.2727C270.311 96.8556 271.83 96.079 273.456 95.9846C276.009 95.8375 278.048 97.3867 278.818 98.2727C278.048 99.1588 276.009 100.708 273.457 100.56Z" fill="#B4975A"/>
<path d="M273.265 102.719C273.887 102.568 273.81 101.994 273.756 101.887C273.756 101.887 277.157 101.231 278.744 98.5871C278.811 98.5197 278.871 98.4539 278.926 98.392C279.955 99.5904 283.405 102.785 288.234 98.8042C288.455 98.6536 288.65 98.6014 288.803 98.6308C288.585 98.6409 288.41 98.8178 288.41 99.0384C288.41 99.2652 288.594 99.4491 288.821 99.4495C289.039 99.4499 289.214 99.2769 289.227 99.0616C289.271 98.9378 289.238 98.7663 289.128 98.6347C289.049 98.541 288.743 98.2642 288.138 98.6757C287.681 99.052 287.237 99.3628 286.806 99.616C285.347 99.8556 284.072 99.9005 282.696 99.3191C281.526 98.8716 281.36 99.7309 281.567 100.159C280.333 99.6442 279.46 98.7717 279.033 98.2727C279.46 97.7738 280.333 96.9009 281.568 96.3864C281.36 96.8141 281.526 97.6731 282.696 97.2264C284.072 96.645 285.347 96.6887 286.806 96.9287C287.237 97.1819 287.681 97.4931 288.138 97.8698C288.743 98.2809 289.049 98.0041 289.128 97.9096C289.238 97.7788 289.271 97.6073 289.227 97.483C289.214 97.2682 289.039 97.0956 288.821 97.0956C288.594 97.0956 288.41 97.2798 288.41 97.5063C288.409 97.7273 288.585 97.9042 288.803 97.9143C288.649 97.9437 288.456 97.8914 288.234 97.7412C283.405 93.7603 279.955 96.9547 278.926 98.1523C278.871 98.0904 278.811 98.0254 278.744 97.9576C277.158 95.3141 273.757 94.658 273.757 94.658C273.811 94.5512 273.887 93.9767 273.265 93.8261C273.265 93.8261 273.39 94.3352 273.203 94.6553C273.203 94.6553 271.398 94.4857 270.898 95.2433C270.539 95.7845 271.122 96.2192 271.329 96.3508C270.447 96.7402 269.604 97.3418 268.802 98.1554C268.262 97.5914 267.737 96.9419 267.236 96.1797L267.173 96.0829L267.104 96.1762C267.096 96.1882 267.078 96.2184 267.053 96.2629C266.258 97.6956 265.251 98.1032 264.546 98.193L261.907 98.1926V98.2727V98.3529L264.546 98.3525C265.251 98.4419 266.258 98.8495 267.053 100.281C267.078 100.327 267.096 100.357 267.104 100.369L267.173 100.461L267.236 100.365C267.737 99.6032 268.262 98.9536 268.802 98.3896C269.604 99.2033 270.447 99.8049 271.329 100.194C271.122 100.326 270.539 100.761 270.898 101.302C271.398 102.058 273.203 101.889 273.203 101.889C273.389 102.21 273.265 102.719 273.265 102.719ZM267.173 100.168C266.484 98.9455 265.641 98.457 264.947 98.2727C265.641 98.0877 266.484 97.5996 267.173 96.3763C267.656 97.099 268.16 97.7281 268.679 98.2727C268.159 98.817 267.656 99.446 267.173 100.168ZM273.457 100.56C271.83 100.466 270.311 99.6895 268.916 98.2727C270.311 96.8556 271.83 96.079 273.456 95.9846C276.009 95.8375 278.048 97.3867 278.818 98.2727C278.048 99.1588 276.009 100.708 273.457 100.56Z" stroke="#B4975A" stroke-miterlimit="10" stroke-linecap="round"/>
<path d="M270.694 151.923C271.25 152.621 270.954 153.526 270.198 153.444L267.637 150.882L267.58 150.939L267.523 150.996L270.085 153.557C270.166 154.313 269.261 154.61 268.564 154.053C268.501 154.003 268.407 153.98 268.43 154.041C268.682 154.703 269.71 156.143 270.832 155.397C271.549 156.228 271.972 155.816 272.514 155.987L283.329 166.804L283.385 166.747L283.442 166.69L272.627 155.874C272.456 155.331 272.868 154.908 272.038 154.192C272.784 153.069 271.343 152.042 270.681 151.79C270.621 151.767 270.644 151.86 270.694 151.923Z" fill="#B4975A"/>
<path d="M270.694 151.923C271.25 152.621 270.954 153.526 270.198 153.444L267.637 150.882L267.58 150.939L267.523 150.996L270.085 153.557C270.166 154.313 269.261 154.61 268.564 154.053C268.501 154.003 268.407 153.98 268.43 154.041C268.682 154.703 269.71 156.143 270.832 155.397C271.549 156.228 271.972 155.816 272.514 155.987L283.329 166.804L283.385 166.747L283.442 166.69L272.627 155.874C272.456 155.331 272.868 154.908 272.038 154.192C272.784 153.069 271.343 152.042 270.681 151.79C270.621 151.767 270.644 151.86 270.694 151.923Z" stroke="#B4975A" stroke-miterlimit="10" stroke-linecap="round"/>
<path d="M253.033 142.678C253.579 143.012 253.931 142.551 253.968 142.437C253.968 142.437 256.837 144.378 259.829 143.632C259.923 143.631 260.012 143.627 260.095 143.622C259.975 145.197 260.157 149.896 266.385 150.496C266.648 150.546 266.823 150.647 266.91 150.776C266.749 150.629 266.5 150.63 266.344 150.786C266.184 150.947 266.184 151.206 266.344 151.367C266.498 151.522 266.744 151.524 266.905 151.38C267.024 151.324 267.122 151.179 267.137 151.009C267.148 150.886 267.127 150.474 266.408 150.337C265.819 150.28 265.285 150.186 264.801 150.06C263.6 149.198 262.667 148.328 262.105 146.944C261.594 145.8 260.87 146.29 260.714 146.739C260.204 145.502 260.204 144.268 260.256 143.614C260.91 143.562 262.144 143.562 263.381 144.072C262.932 144.228 262.442 144.952 263.585 145.464C264.969 146.025 265.839 146.959 266.701 148.16C266.827 148.644 266.921 149.178 266.978 149.767C267.115 150.486 267.527 150.507 267.65 150.496C267.82 150.481 267.965 150.383 268.022 150.264C268.164 150.103 268.163 149.857 268.009 149.703C267.848 149.542 267.587 149.543 267.427 149.703C267.27 149.859 267.27 150.108 267.417 150.269C267.287 150.181 267.188 150.008 267.137 149.745C266.537 143.515 261.839 143.333 260.265 143.452C260.269 143.37 260.273 143.281 260.274 143.186C261.021 140.195 259.079 137.326 259.079 137.326C259.193 137.289 259.654 136.936 259.32 136.39C259.32 136.39 259.048 136.838 258.69 136.932C258.69 136.932 257.534 135.536 256.645 135.718C256.008 135.847 256.113 136.567 256.166 136.805C255.267 136.458 254.246 136.287 253.104 136.295C253.121 135.514 253.208 134.683 253.393 133.79L253.417 133.678L253.302 133.695C253.287 133.697 253.254 133.706 253.205 133.72C251.63 134.171 250.629 133.747 250.068 133.312L248.202 131.445L248.145 131.502L248.089 131.558L249.955 133.425C250.39 133.986 250.815 134.987 250.364 136.561C250.349 136.611 250.34 136.644 250.338 136.66L250.322 136.773L250.434 136.75C251.327 136.565 252.157 136.477 252.938 136.461C252.929 137.603 253.101 138.624 253.449 139.523C253.21 139.471 252.489 139.365 252.361 140.002C252.18 140.891 253.576 142.047 253.576 142.047C253.48 142.406 253.033 142.678 253.033 142.678ZM250.529 136.566C250.906 135.215 250.655 134.273 250.295 133.651C250.916 134.012 251.858 134.263 253.21 133.885C253.04 134.738 252.951 135.539 252.934 136.291C252.181 136.308 251.381 136.397 250.529 136.566ZM254.694 141.287C253.611 140.07 253.086 138.447 253.101 136.458C255.089 136.444 256.713 136.968 257.93 138.052C259.838 139.752 260.185 142.29 260.103 143.461C258.932 143.543 256.395 143.196 254.694 141.287Z" fill="#B4975A"/>
<path d="M253.033 142.678C253.579 143.012 253.931 142.551 253.968 142.437C253.968 142.437 256.837 144.378 259.829 143.632C259.923 143.631 260.012 143.627 260.095 143.622C259.975 145.197 260.157 149.896 266.385 150.496C266.648 150.546 266.823 150.647 266.91 150.776C266.749 150.629 266.5 150.63 266.344 150.786C266.184 150.947 266.184 151.206 266.344 151.367C266.498 151.522 266.744 151.524 266.905 151.38C267.024 151.324 267.122 151.179 267.137 151.009C267.148 150.886 267.127 150.474 266.408 150.337C265.819 150.28 265.285 150.186 264.801 150.06C263.6 149.198 262.667 148.328 262.105 146.944C261.594 145.8 260.87 146.29 260.714 146.739C260.204 145.502 260.204 144.268 260.256 143.614C260.91 143.562 262.144 143.562 263.381 144.072C262.932 144.228 262.442 144.952 263.585 145.464C264.969 146.025 265.839 146.959 266.701 148.16C266.827 148.644 266.921 149.178 266.978 149.767C267.115 150.486 267.527 150.507 267.65 150.496C267.82 150.481 267.965 150.383 268.022 150.264C268.164 150.103 268.163 149.857 268.009 149.703C267.848 149.542 267.587 149.543 267.427 149.703C267.27 149.859 267.27 150.108 267.417 150.269C267.287 150.181 267.188 150.008 267.137 149.745C266.537 143.515 261.839 143.333 260.265 143.452C260.269 143.37 260.273 143.281 260.274 143.186C261.021 140.195 259.079 137.326 259.079 137.326C259.193 137.289 259.654 136.936 259.32 136.39C259.32 136.39 259.048 136.838 258.69 136.932C258.69 136.932 257.534 135.536 256.645 135.718C256.008 135.847 256.113 136.567 256.166 136.805C255.267 136.458 254.246 136.287 253.104 136.295C253.121 135.514 253.208 134.683 253.393 133.79L253.417 133.678L253.302 133.695C253.287 133.697 253.254 133.706 253.205 133.72C251.63 134.171 250.629 133.747 250.068 133.312L248.202 131.445L248.145 131.502L248.089 131.558L249.955 133.425C250.39 133.986 250.815 134.987 250.364 136.561C250.349 136.611 250.34 136.644 250.338 136.66L250.322 136.773L250.434 136.75C251.327 136.565 252.157 136.477 252.938 136.461C252.929 137.603 253.101 138.624 253.449 139.523C253.21 139.471 252.489 139.365 252.361 140.002C252.18 140.891 253.576 142.047 253.576 142.047C253.48 142.406 253.033 142.678 253.033 142.678ZM250.529 136.566C250.906 135.215 250.655 134.273 250.295 133.651C250.916 134.012 251.858 134.263 253.21 133.885C253.04 134.738 252.951 135.539 252.934 136.291C252.181 136.308 251.381 136.397 250.529 136.566ZM254.694 141.287C253.611 140.07 253.086 138.447 253.101 136.458C255.089 136.444 256.713 136.968 257.93 138.052C259.838 139.752 260.185 142.29 260.103 143.461C258.932 143.543 256.395 143.196 254.694 141.287Z" stroke="#B4975A" stroke-miterlimit="10" stroke-linecap="round"/>
<path d="M216.428 175.653C216.327 176.539 215.479 176.969 215.001 176.377V172.754H214.921H214.841V176.377C214.364 176.969 213.514 176.539 213.415 175.652C213.406 175.572 213.356 175.489 213.33 175.548C213.039 176.195 212.748 177.941 214.069 178.207C213.988 179.3 214.579 179.308 214.841 179.813V195H214.921H215.001V179.813C215.264 179.308 215.855 179.301 215.774 178.207C217.096 177.941 216.803 176.195 216.513 175.548C216.486 175.489 216.437 175.572 216.428 175.653Z" fill="#B4975A"/>
<path d="M216.428 175.653C216.327 176.539 215.479 176.969 215.001 176.377V172.754H214.921H214.841V176.377C214.364 176.969 213.514 176.539 213.415 175.652C213.406 175.572 213.356 175.489 213.33 175.548C213.039 176.195 212.748 177.941 214.069 178.207C213.988 179.3 214.579 179.308 214.841 179.813V195H214.921H215.001V179.813C215.264 179.308 215.855 179.301 215.774 178.207C217.096 177.941 216.803 176.195 216.513 175.548C216.486 175.489 216.437 175.572 216.428 175.653Z" stroke="#B4975A" stroke-miterlimit="10" stroke-linecap="round"/>
<path d="M210.475 156.625C210.626 157.247 211.2 157.17 211.306 157.116C211.306 157.116 211.963 160.517 214.607 162.105C214.674 162.172 214.739 162.232 214.801 162.287C213.603 163.316 210.41 166.767 214.389 171.596C214.54 171.817 214.592 172.012 214.563 172.165C214.552 171.947 214.376 171.772 214.155 171.772C213.929 171.772 213.745 171.956 213.744 172.183C213.744 172.401 213.917 172.576 214.132 172.588C214.256 172.633 214.427 172.6 214.558 172.49C214.653 172.411 214.929 172.105 214.518 171.5C214.142 171.042 213.831 170.599 213.578 170.167C213.338 168.709 213.293 167.433 213.874 166.058C214.322 164.888 213.463 164.721 213.035 164.929C213.55 163.694 214.422 162.82 214.921 162.395C215.42 162.82 216.293 163.694 216.807 164.929C216.379 164.721 215.52 164.888 215.967 166.058C216.548 167.433 216.504 168.709 216.264 170.168C216.012 170.599 215.7 171.042 215.324 171.5C214.912 172.105 215.19 172.411 215.283 172.49C215.414 172.6 215.586 172.633 215.71 172.589C215.925 172.576 216.098 172.401 216.098 172.183C216.098 171.956 215.914 171.772 215.687 171.772C215.465 171.771 215.289 171.947 215.279 172.165C215.25 172.011 215.302 171.818 215.452 171.596C219.433 166.767 216.239 163.316 215.041 162.287C215.102 162.232 215.168 162.172 215.236 162.105C217.879 160.518 218.535 157.117 218.535 157.117C218.642 157.17 219.216 157.247 219.367 156.625C219.367 156.625 218.858 156.749 218.537 156.563C218.537 156.563 218.707 154.758 217.95 154.257C217.409 153.898 216.974 154.482 216.843 154.688C216.452 153.807 215.852 152.964 215.038 152.162C215.602 151.621 216.252 151.096 217.014 150.595L217.11 150.532L217.017 150.464C217.005 150.454 216.975 150.437 216.93 150.412C215.498 149.617 215.09 148.61 215 147.905L215.001 145.266H214.921H214.841V147.905C214.751 148.61 214.344 149.617 212.912 150.412C212.867 150.437 212.837 150.454 212.825 150.464L212.733 150.532L212.829 150.595C213.591 151.096 214.24 151.621 214.804 152.162C213.99 152.963 213.389 153.807 213 154.688C212.868 154.482 212.433 153.898 211.892 154.257C211.136 154.758 211.306 156.563 211.306 156.563C210.983 156.749 210.475 156.625 210.475 156.625ZM213.026 150.532C214.248 149.843 214.737 149 214.921 148.306C215.106 149 215.594 149.843 216.817 150.532C216.094 151.016 215.465 151.518 214.921 152.038C214.376 151.518 213.748 151.016 213.026 150.532ZM212.633 156.817C212.728 155.19 213.504 153.671 214.921 152.275C216.337 153.671 217.114 155.19 217.208 156.817C217.356 159.369 215.807 161.409 214.921 162.179C214.035 161.409 212.486 159.369 212.633 156.817Z" fill="#B4975A"/>
<path d="M210.475 156.625C210.626 157.247 211.2 157.17 211.306 157.116C211.306 157.116 211.963 160.517 214.607 162.105C214.674 162.172 214.739 162.232 214.801 162.287C213.603 163.316 210.41 166.767 214.389 171.596C214.54 171.817 214.592 172.012 214.563 172.165C214.552 171.947 214.376 171.772 214.155 171.772C213.929 171.772 213.745 171.956 213.744 172.183C213.744 172.401 213.917 172.576 214.132 172.588C214.256 172.633 214.427 172.6 214.558 172.49C214.653 172.411 214.929 172.105 214.518 171.5C214.142 171.042 213.831 170.599 213.578 170.167C213.338 168.709 213.293 167.433 213.874 166.058C214.322 164.888 213.463 164.721 213.035 164.929C213.55 163.694 214.422 162.82 214.921 162.395C215.42 162.82 216.293 163.694 216.807 164.929C216.379 164.721 215.52 164.888 215.967 166.058C216.548 167.433 216.504 168.709 216.264 170.168C216.012 170.599 215.7 171.042 215.324 171.5C214.912 172.105 215.19 172.411 215.283 172.49C215.414 172.6 215.586 172.633 215.71 172.589C215.925 172.576 216.098 172.401 216.098 172.183C216.098 171.956 215.914 171.772 215.687 171.772C215.465 171.771 215.289 171.947 215.279 172.165C215.25 172.011 215.302 171.818 215.452 171.596C219.433 166.767 216.239 163.316 215.041 162.287C215.102 162.232 215.168 162.172 215.236 162.105C217.879 160.518 218.535 157.117 218.535 157.117C218.642 157.17 219.216 157.247 219.367 156.625C219.367 156.625 218.858 156.749 218.537 156.563C218.537 156.563 218.707 154.758 217.95 154.257C217.409 153.898 216.974 154.482 216.843 154.688C216.452 153.807 215.852 152.964 215.038 152.162C215.602 151.621 216.252 151.096 217.014 150.595L217.11 150.532L217.017 150.464C217.005 150.454 216.975 150.437 216.93 150.412C215.498 149.617 215.09 148.61 215 147.905L215.001 145.266H214.921H214.841V147.905C214.751 148.61 214.344 149.617 212.912 150.412C212.867 150.437 212.837 150.454 212.825 150.464L212.733 150.532L212.829 150.595C213.591 151.096 214.24 151.621 214.804 152.162C213.99 152.963 213.389 153.807 213 154.688C212.868 154.482 212.433 153.898 211.892 154.257C211.136 154.758 211.306 156.563 211.306 156.563C210.983 156.749 210.475 156.625 210.475 156.625ZM213.026 150.532C214.248 149.843 214.737 149 214.921 148.306C215.106 149 215.594 149.843 216.817 150.532C216.094 151.016 215.465 151.518 214.921 152.038C214.376 151.518 213.748 151.016 213.026 150.532ZM212.633 156.817C212.728 155.19 213.504 153.671 214.921 152.275C216.337 153.671 217.114 155.19 217.208 156.817C217.356 159.369 215.807 161.409 214.921 162.179C214.035 161.409 212.486 159.369 212.633 156.817Z" stroke="#B4975A" stroke-miterlimit="10" stroke-linecap="round"/>
<path d="M159.148 44.6217C158.592 43.9238 158.888 43.0195 159.644 43.1012L162.205 45.663L162.262 45.6061L162.319 45.5496L159.757 42.9874C159.676 42.2318 160.58 41.9349 161.278 42.4919C161.341 42.5426 161.435 42.5655 161.412 42.5047C161.16 41.8424 160.131 40.4012 159.009 41.1479C158.293 40.3176 157.87 40.7295 157.328 40.558L146.187 29.4158L146.131 29.4727L146.074 29.5292L157.215 40.6714C157.386 41.2133 156.974 41.6372 157.805 42.353C157.058 43.4763 158.499 44.5037 159.161 44.7557C159.222 44.7781 159.198 44.6852 159.148 44.6217Z" fill="#B4975A"/>
<path d="M159.148 44.6217C158.592 43.9238 158.888 43.0195 159.644 43.1012L162.205 45.663L162.262 45.6061L162.319 45.5496L159.757 42.9874C159.676 42.2318 160.58 41.9349 161.278 42.4919C161.341 42.5426 161.435 42.5655 161.412 42.5047C161.16 41.8424 160.131 40.4012 159.009 41.1479C158.293 40.3176 157.87 40.7295 157.328 40.558L146.187 29.4158L146.131 29.4727L146.074 29.5292L157.215 40.6714C157.386 41.2133 156.974 41.6372 157.805 42.353C157.058 43.4763 158.499 44.5037 159.161 44.7557C159.222 44.7781 159.198 44.6852 159.148 44.6217Z" stroke="#B4975A" stroke-miterlimit="10" stroke-linecap="round"/>
<path d="M176.809 53.8667C176.263 53.5335 175.911 53.9941 175.874 54.1071C175.874 54.1071 173.005 52.167 170.013 52.9137C169.919 52.9141 169.829 52.9172 169.747 52.923C169.867 51.3483 169.686 46.6493 163.457 46.0485C163.193 45.9994 163.02 45.8987 162.932 45.7694C163.093 45.9161 163.342 45.9154 163.498 45.759C163.658 45.5987 163.658 45.339 163.498 45.1783C163.344 45.0231 163.098 45.0216 162.937 45.1652C162.818 45.2213 162.72 45.3661 162.704 45.536C162.694 45.6591 162.715 46.0706 163.434 46.208C164.024 46.2653 164.557 46.359 165.041 46.4856C166.241 47.3465 167.175 48.2174 167.736 49.6005C168.248 50.7452 168.973 50.2551 169.128 49.8053C169.638 51.0429 169.638 52.2777 169.586 52.9315C168.932 52.983 167.698 52.983 166.461 52.4732C166.91 52.3176 167.4 51.5926 166.256 51.0808C164.873 50.5199 164.002 49.5858 163.141 48.3851C163.015 47.9016 162.921 47.3678 162.864 46.7782C162.727 46.059 162.315 46.0385 162.192 46.0485C162.023 46.0636 161.877 46.162 161.82 46.2804C161.678 46.4422 161.679 46.688 161.834 46.8425C161.995 47.0035 162.254 47.0027 162.415 46.8425C162.571 46.6857 162.572 46.4372 162.425 46.2761C162.555 46.3644 162.655 46.5374 162.704 46.8007C163.305 53.0306 168.003 53.2114 169.578 53.0926C169.572 53.1742 169.569 53.264 169.568 53.3589C168.821 56.3504 170.762 59.2195 170.762 59.2195C170.649 59.2567 170.188 59.6086 170.522 60.1548C170.522 60.1548 170.793 59.7073 171.152 59.6124C171.152 59.6124 172.308 61.0083 173.198 60.8275C173.834 60.6983 173.729 59.9786 173.676 59.7398C174.574 60.0866 175.596 60.2585 176.738 60.25C176.722 61.0312 176.634 61.8619 176.449 62.7549L176.425 62.8668L176.54 62.8501C176.554 62.8482 176.588 62.8393 176.637 62.8254C178.212 62.374 179.213 62.7986 179.774 63.2334L181.64 65.1003L181.697 65.0434L181.753 64.9869L179.887 63.1203C179.452 62.559 179.027 61.558 179.478 59.9841C179.493 59.9341 179.502 59.9004 179.504 59.8857L179.52 59.7723L179.408 59.7952C178.516 59.9802 177.685 60.0681 176.904 60.0843C176.913 58.9424 176.741 57.92 176.393 57.0216C176.633 57.0746 177.352 57.1791 177.481 56.5431C177.662 55.6548 176.267 54.4981 176.267 54.4981C176.361 54.1381 176.809 53.8667 176.809 53.8667ZM179.313 59.979C178.936 61.3304 179.187 62.2726 179.547 62.8939C178.926 62.5335 177.984 62.2823 176.633 62.6604C176.802 61.8077 176.89 61.0068 176.909 60.2546C177.661 60.2364 178.461 60.1482 179.313 59.979ZM175.147 55.2572C176.231 56.475 176.756 58.0985 176.741 60.087C174.753 60.1017 173.129 59.5772 171.912 58.493C170.003 56.7928 169.657 54.2546 169.739 53.0844C170.91 53.0012 173.448 53.348 175.147 55.2572Z" fill="#B4975A"/>
<path d="M176.809 53.8667C176.263 53.5335 175.911 53.9941 175.874 54.1071C175.874 54.1071 173.005 52.167 170.013 52.9137C169.919 52.9141 169.829 52.9172 169.747 52.923C169.867 51.3483 169.686 46.6493 163.457 46.0485C163.193 45.9994 163.02 45.8987 162.932 45.7694C163.093 45.9161 163.342 45.9154 163.498 45.759C163.658 45.5987 163.658 45.339 163.498 45.1783C163.344 45.0231 163.098 45.0216 162.937 45.1652C162.818 45.2213 162.72 45.3661 162.704 45.536C162.694 45.6591 162.715 46.0706 163.434 46.208C164.024 46.2653 164.557 46.359 165.041 46.4856C166.241 47.3465 167.175 48.2174 167.736 49.6005C168.248 50.7452 168.973 50.2551 169.128 49.8053C169.638 51.0429 169.638 52.2777 169.586 52.9315C168.932 52.983 167.698 52.983 166.461 52.4732C166.91 52.3176 167.4 51.5926 166.256 51.0808C164.873 50.5199 164.002 49.5858 163.141 48.3851C163.015 47.9016 162.921 47.3678 162.864 46.7782C162.727 46.059 162.315 46.0385 162.192 46.0485C162.023 46.0636 161.877 46.162 161.82 46.2804C161.678 46.4422 161.679 46.688 161.834 46.8425C161.995 47.0035 162.254 47.0027 162.415 46.8425C162.571 46.6857 162.572 46.4372 162.425 46.2761C162.555 46.3644 162.655 46.5374 162.704 46.8007C163.305 53.0306 168.003 53.2114 169.578 53.0926C169.572 53.1742 169.569 53.264 169.568 53.3589C168.821 56.3504 170.762 59.2195 170.762 59.2195C170.649 59.2567 170.188 59.6086 170.522 60.1548C170.522 60.1548 170.793 59.7073 171.152 59.6124C171.152 59.6124 172.308 61.0083 173.198 60.8275C173.834 60.6983 173.729 59.9786 173.676 59.7398C174.574 60.0866 175.596 60.2585 176.738 60.25C176.722 61.0312 176.634 61.8619 176.449 62.7549L176.425 62.8668L176.54 62.8501C176.554 62.8482 176.588 62.8393 176.637 62.8254C178.212 62.374 179.213 62.7986 179.774 63.2334L181.64 65.1003L181.697 65.0434L181.753 64.9869L179.887 63.1203C179.452 62.559 179.027 61.558 179.478 59.9841C179.493 59.9341 179.502 59.9004 179.504 59.8857L179.52 59.7723L179.408 59.7952C178.516 59.9802 177.685 60.0681 176.904 60.0843C176.913 58.9424 176.741 57.92 176.393 57.0216C176.633 57.0746 177.352 57.1791 177.481 56.5431C177.662 55.6548 176.267 54.4981 176.267 54.4981C176.361 54.1381 176.809 53.8667 176.809 53.8667ZM179.313 59.979C178.936 61.3304 179.187 62.2726 179.547 62.8939C178.926 62.5335 177.984 62.2823 176.633 62.6604C176.802 61.8077 176.89 61.0068 176.909 60.2546C177.661 60.2364 178.461 60.1482 179.313 59.979ZM175.147 55.2572C176.231 56.475 176.756 58.0985 176.741 60.087C174.753 60.1017 173.129 59.5772 171.912 58.493C170.003 56.7928 169.657 54.2546 169.739 53.0844C170.91 53.0012 173.448 53.348 175.147 55.2572Z" stroke="#B4975A" stroke-miterlimit="10" stroke-linecap="round"/>
<path d="M184.639 98.611C184.64 97.8821 184.623 97.1528 184.701 96.4297C186.44 99.643 188.511 102.665 190.267 105.866C189.467 105.67 188.69 105.401 187.888 105.217L187.784 105.203C187.775 113.327 187.778 121.448 187.782 129.571C187.466 130.562 187.943 130.036 188.096 129.797C189.192 128.065 190.433 126.42 191.82 124.912C191.957 124.786 192.188 124.718 192.215 124.509C192.438 124.175 192.747 123.801 193.113 123.614C193.345 123.618 193.436 123.389 193.514 123.21C196.098 120.846 199.377 119.061 202.929 118.85C203.542 118.848 204.157 118.85 204.771 118.849C208.721 119.092 212.537 120.982 215.112 123.973C215.157 124.297 215.557 124.354 215.616 124.677C216.519 125.713 217.21 126.957 217.825 128.192C219.137 130.96 219.925 133.937 220.486 136.94C220.47 136.987 220.438 137.079 220.423 137.127C217.009 137.167 213.595 137.125 210.18 137.147C209.703 137.116 209.216 137.202 208.75 137.084C209.886 136.446 210.545 134.953 210.033 133.713C209.534 132.41 209.028 131.076 208.143 129.983C207.01 127.979 204.916 126.577 202.634 126.286C202.114 126.207 201.572 126.14 201.057 126.275C197.147 126.779 193.6 128.917 190.723 131.433C190.402 131.555 190.242 131.894 189.948 132.051C189.392 132.394 188.808 132.861 188.522 133.463C187.114 135.035 185.798 136.714 184.602 138.461C184.539 138.01 184.561 137.554 184.466 137.111C184.39 133.634 184.409 130.148 184.456 126.67C184.617 124.936 184.499 123.187 184.533 121.447C184.555 120.123 184.481 118.793 184.573 117.475C184.71 116.972 184.617 116.44 184.645 115.928C184.634 110.156 184.647 104.383 184.639 98.611Z" fill="#B4975A"/>
</svg>
