<svg width="273" height="88" viewBox="0 0 273 88" fill="none" xmlns="http://www.w3.org/2000/svg">
<path d="M115.132 77.359L115.139 77.3707L115.146 77.3829C116.505 79.7854 118.483 82.1429 121.111 82.6264C121.694 82.6309 122.281 82.6309 122.872 82.6294C124.174 82.5223 125.376 81.9397 126.504 81.0979C127.638 80.2508 128.668 79.1632 129.621 78.0912C129.838 77.8476 130.052 77.6031 130.263 77.3622C130.963 76.5621 131.629 75.8014 132.242 75.243C132.643 74.877 133.056 74.5657 133.475 74.3821C133.894 74.199 134.349 74.1318 134.804 74.294C148.987 77.4966 160.146 85.5743 164.066 94.7261C166.035 99.3232 166.174 104.194 163.932 108.809C161.729 113.343 157.258 117.572 150.108 121.06C151.082 128.25 151.271 134.029 150.635 141.573C160.863 130.99 169.559 121.055 169.876 104.634L169.876 104.632C170.12 94.5837 164.269 82.8771 156.154 72.8142C148.044 62.7589 137.766 54.4603 129.316 51.1867L129.306 51.183L129.297 51.1788C126.72 50.0555 123.815 49.7831 121.15 50.6456C118.535 51.5208 116.365 54.06 114.804 57.1316C113.25 60.19 112.355 63.6703 112.226 66.2627L112.226 66.2634C112.026 70.1556 113.031 74.087 115.132 77.359Z" fill="#EBEEF3" stroke="#EBEEF3"/>
<path d="M70.6915 116.223L70.7543 116.198L70.8217 116.19C74.0185 115.818 77.23 114.545 79.532 112.33C80.3789 111.468 81.2368 110.608 82.1008 109.761C86.5209 104.687 87.2195 97.0058 84.3818 90.9441C81.5789 85.2818 75.6408 81.0711 69.2809 80.9714C69.1661 80.9824 69.0486 80.9982 68.9201 81.0158L68.9056 81.0178C68.7753 81.0356 68.6333 81.055 68.4899 81.0686C68.2018 81.0959 67.8763 81.1036 67.5376 81.0233C66.9904 80.964 66.5843 80.943 66.2579 81.1176L66.1619 81.1689L66.0533 81.1757C61.3767 81.468 56.9908 84.3697 54.1308 88.1087L54.1282 88.1121C52.2511 90.523 51.2723 93.5519 50.7627 96.5824C50.7944 97.2004 50.8057 97.8203 50.8168 98.431L50.8173 98.4541C50.8289 99.0934 50.8407 99.7228 50.8748 100.348C50.943 101.595 51.0993 102.798 51.508 103.954C51.5385 104.032 51.5689 104.11 51.5994 104.188C52.4385 106.335 53.2638 108.446 54.9179 109.884L54.9287 109.893L54.939 109.903C55.7059 110.651 56.4509 111.408 57.2002 112.17C59.127 114.078 61.7177 115.231 64.3837 115.875L64.4149 115.883L64.4448 115.894C65.3281 116.232 66.2715 116.291 67.2912 116.294C67.4964 116.295 67.7062 116.293 67.9193 116.292C68.692 116.285 69.5078 116.278 70.3038 116.384C70.4336 116.33 70.5952 116.263 70.6915 116.223Z" fill="#EBEEF3" stroke="#EBEEF3"/>
<path d="M21.7062 120.011L21.6986 119.999L21.6917 119.987C20.3335 117.584 18.3549 115.227 15.7272 114.743C15.144 114.739 14.5565 114.739 13.9655 114.74C12.664 114.847 11.4616 115.43 10.3342 116.272C9.19966 117.119 8.16964 118.206 7.21661 119.278C7.00012 119.522 6.78627 119.766 6.57555 120.007C5.87521 120.807 5.20946 121.568 4.59629 122.127C4.1946 122.493 3.78228 122.804 3.36251 122.988C2.94389 123.171 2.48912 123.238 2.03397 123.076C-12.1489 119.873 -23.3085 111.795 -27.2282 102.643C-29.1971 98.0464 -29.3359 93.1759 -27.0938 88.5607C-24.8914 84.0268 -20.4202 79.7974 -13.2706 76.3093C-14.2446 69.12 -14.4333 63.3405 -13.7974 55.797C-24.0249 66.3794 -32.7208 76.3142 -33.0381 92.7354L-33.0381 92.7379C-33.2823 102.786 -27.4312 114.493 -19.3156 124.555C-11.2062 134.611 -0.928581 142.909 7.52205 146.183L7.53173 146.187L7.54125 146.191C10.1178 147.314 13.023 147.586 15.6876 146.724C18.3025 145.849 20.4724 143.31 22.0333 140.238C23.5873 137.18 24.4825 133.699 24.6119 131.107L24.612 131.106C24.8113 127.214 23.8068 123.283 21.7062 120.011Z" fill="#EBEEF3" stroke="#EBEEF3"/>
<path d="M20.3327 80.6807L20.3357 80.6671L20.3394 80.6536C21.0744 77.9921 21.3399 74.9239 19.8228 72.7199C19.4146 72.3035 18.9991 71.8881 18.5799 71.4705C17.5838 70.6242 16.3224 70.1845 14.931 69.9811C13.5309 69.7765 12.0348 69.8159 10.6042 69.8987C10.2792 69.9176 9.95545 69.9389 9.63644 69.9599C8.57627 70.0296 7.56833 70.0959 6.74031 70.0566C6.19781 70.0308 5.68635 69.9589 5.25984 69.7914C4.83445 69.6243 4.46574 69.3498 4.25858 68.9132C-3.50913 56.6041 -5.69796 42.989 -2.00904 33.7418C-0.156001 29.0966 3.18436 25.554 8.02853 23.8782C12.787 22.232 18.9346 22.408 26.4525 25.0049C30.839 19.2325 34.785 15.0117 40.5611 10.1268C25.8579 10.3663 12.6951 11.2323 0.878525 22.6185L0.876725 22.6202C-6.3893 29.5521 -10.5163 41.9741 -11.8816 54.8378C-13.2458 67.6916 -11.8366 80.8389 -8.17173 89.1386L-8.1675 89.1482L-8.16367 89.158C-7.13565 91.7783 -5.27281 94.0291 -2.78008 95.3071C-0.313118 96.5397 3.0136 96.2809 6.2855 95.2144C9.54319 94.1526 12.6329 92.3259 14.5544 90.5843L14.5549 90.5838C17.4432 87.9732 19.5083 84.4824 20.3327 80.6807Z" fill="#EBEEF3" stroke="#EBEEF3"/>
<path d="M47.1268 51.8965L47.1386 51.8889L47.1508 51.882C49.549 50.5208 51.9031 48.5397 52.3859 45.9068C52.3904 45.3225 52.3904 44.7339 52.3889 44.1418C52.2819 42.8375 51.7001 41.6328 50.8597 40.5034C50.014 39.3669 48.9283 38.3352 47.8581 37.3805C47.6148 37.1635 47.3706 36.9491 47.1301 36.7379C46.3314 36.0366 45.5721 35.3699 45.0146 34.7559C44.6492 34.3536 44.3384 33.9407 44.1552 33.5206C43.9724 33.1016 43.9054 32.6468 44.0671 32.1916C47.2642 17.9862 55.3284 6.80814 64.4658 2.8818C69.0559 0.909441 73.9191 0.770429 78.5274 3.01639C83.0541 5.22261 87.2765 9.70111 90.7587 16.862C97.936 15.8864 103.706 15.6975 111.238 16.3344C100.671 6.0892 90.753 -2.62158 74.3584 -2.93939L74.3559 -2.93946C64.3253 -3.18442 52.6385 2.67601 42.5921 10.8052C32.5536 18.928 24.2686 29.2227 21.0003 37.6872L20.9965 37.6969L20.9924 37.7064C19.8701 40.2875 19.5979 43.198 20.459 45.8675C21.3331 48.4873 23.8687 50.6607 26.9352 52.224C29.9884 53.7805 33.4625 54.677 36.0499 54.8066L36.0506 54.8067C39.936 55.0063 43.8605 54.0011 47.1268 51.8965Z" fill="#EBEEF3" stroke="#EBEEF3"/>
<path d="M86.3943 50.5209L86.408 50.5238L86.4215 50.5276C89.0786 51.2638 92.1416 51.5302 94.3404 50.0105C94.756 49.6016 95.1706 49.1848 95.5878 48.7646C96.4328 47.7668 96.872 46.5029 97.0751 45.1089C97.2794 43.7063 97.2401 42.2076 97.1573 40.7746C97.1385 40.449 97.1172 40.1247 97.0963 39.8052C97.0266 38.7434 96.9605 37.7341 96.9997 36.9049C97.0255 36.3617 97.0973 35.8498 97.2644 35.4229C97.431 34.9974 97.7049 34.6281 98.1411 34.4205C110.43 26.64 124.024 24.4475 133.257 28.1429C137.895 29.9992 141.432 33.3452 143.104 38.1967C144.748 42.9626 144.572 49.12 141.979 56.6504C147.742 61.0437 151.955 64.9958 156.832 70.7802C156.592 56.0533 155.727 42.8687 144.36 31.0328L144.358 31.031C137.438 23.7532 125.036 19.6195 112.194 18.2521C99.3617 16.8857 86.2363 18.2971 77.9506 21.9678L77.941 21.9721L77.9312 21.976C75.315 23.0054 73.0687 24.8702 71.7926 27.3679C70.5614 29.8396 70.8199 33.1728 71.8848 36.4505C72.945 39.7137 74.7688 42.8086 76.5076 44.7334L76.508 44.7338C79.1144 47.6261 82.5994 49.6952 86.3943 50.5209Z" fill="#EBEEF3" stroke="#EBEEF3"/>
<path d="M77.7769 -24.3308C77.46 -25.6422 76.2509 -25.4798 76.0269 -25.3655C76.0269 -25.3655 74.6451 -32.5362 69.0806 -35.8829C68.9388 -36.0232 68.8003 -36.1505 68.67 -36.2656C71.1923 -38.4355 77.9154 -45.7098 69.5376 -55.8909C69.2207 -56.3577 69.1107 -56.7674 69.1726 -57.0914C69.1938 -56.6319 69.5662 -56.2622 70.0305 -56.2622C70.508 -56.2622 70.895 -56.6499 70.8958 -57.1281C70.8966 -57.5891 70.5324 -57.9572 70.0794 -57.9841C69.8187 -58.078 69.4578 -58.0078 69.1808 -57.776C68.9836 -57.6087 68.4011 -56.9649 69.2672 -55.6886C70.0591 -54.7248 70.7133 -53.7888 71.2461 -52.8797C71.7504 -49.804 71.8449 -47.1151 70.6212 -44.2156C69.6794 -41.7487 71.4881 -41.3986 72.3892 -41.8352C71.3056 -39.232 69.4692 -37.3909 68.419 -36.4925C67.3689 -37.3909 65.5317 -39.232 64.4489 -41.836C65.3492 -41.3986 67.157 -41.7487 66.2168 -44.2156C64.9931 -47.1151 65.0852 -49.804 65.5903 -52.8797C66.1231 -53.7888 66.7782 -54.7248 67.5709 -55.6886C68.4361 -56.9649 67.8536 -57.6087 67.6548 -57.776C67.3794 -58.0078 67.0185 -58.078 66.757 -57.9841C66.3048 -57.9572 65.9415 -57.5883 65.9415 -57.1289C65.9415 -56.6499 66.3293 -56.2622 66.8059 -56.2622C67.2711 -56.2606 67.6434 -56.6319 67.6646 -57.0914C67.7265 -56.7657 67.6165 -56.3593 67.3004 -55.8917C58.9218 -45.7098 65.6449 -38.4363 68.1656 -36.2656C68.0353 -36.1505 67.8984 -36.0232 67.7558 -35.8829C62.1921 -32.5379 60.8112 -25.3672 60.8112 -25.3672C60.5863 -25.4806 59.3773 -25.6422 59.0603 -24.3308C59.0603 -24.3308 60.1317 -24.5936 60.8055 -24.1994C60.8055 -24.1994 60.4486 -20.3933 62.043 -19.339C63.182 -18.5833 64.0969 -19.8123 64.3739 -20.2472C65.1935 -18.3891 66.4596 -16.6109 68.1722 -14.9208C66.9851 -13.7808 65.618 -12.6742 64.0138 -11.6183L63.8102 -11.4861L64.0065 -11.3408C64.0318 -11.322 64.0953 -11.2853 64.189 -11.2323C67.2043 -9.55691 68.0622 -7.43272 68.2512 -5.9475L68.2504 -0.382812L68.419 -0.382812L68.5877 -0.382812L68.5869 -5.9475C68.7751 -7.43272 69.633 -9.55691 72.6466 -11.2323C72.7419 -11.2853 72.8055 -11.322 72.8307 -11.3408L73.0238 -11.4861L72.8234 -11.6183C71.2192 -12.6742 69.8521 -13.7808 68.6651 -14.9208C70.3776 -16.6101 71.6437 -18.3883 72.4625 -20.2472C72.7403 -19.8123 73.6552 -18.5817 74.795 -19.339C76.3862 -20.3933 76.0293 -24.1994 76.0293 -24.1994C76.7064 -24.5919 77.7769 -24.3308 77.7769 -24.3308ZM72.4079 -11.4861C69.835 -10.0335 68.8068 -8.2553 68.419 -6.7913C68.0296 -8.25612 67.0022 -10.0335 64.4277 -11.4861C65.9488 -12.5045 67.2727 -13.5662 68.419 -14.6597C69.5645 -13.5646 70.8884 -12.5045 72.4079 -11.4861ZM73.234 -24.7339C73.0352 -21.304 71.4009 -18.1018 68.419 -15.16C65.4363 -18.1018 63.802 -21.304 63.6032 -24.7331C63.2936 -30.115 66.5541 -34.4148 68.419 -36.0387C70.2839 -34.4148 73.5444 -30.115 73.234 -24.7339Z" fill="#EBEEF3" stroke="#EBEEF3" stroke-miterlimit="10" stroke-linecap="round"/>
<path d="M177.773 -12.1478L177.518 -12.3678C177.37 -12.2319 177.151 -12.2395 177.019 -12.3729L177.018 -12.3742C176.874 -12.5175 176.874 -12.7497 177.017 -12.8934C177.147 -13.023 177.364 -13.0326 177.513 -12.9002L177.566 -12.8538L177.629 -12.8236C177.655 -12.8108 177.703 -12.7751 177.749 -12.7031C177.794 -12.6333 177.826 -12.5441 177.835 -12.4463L177.773 -12.1478ZM177.773 -12.1478C177.839 -12.2782 177.839 -12.3953 177.835 -12.446L177.773 -12.1478ZM149.41 11.2341L149.544 11.2044C150.098 9.89933 150.837 8.71906 151.768 7.67207L151.768 7.67194C154.156 4.98691 157.287 3.71778 159.898 3.20084C157.939 3.20796 156.1 3.6569 154.589 4.20041C153.469 4.60346 152.541 5.05471 151.893 5.40463C151.57 5.57945 151.317 5.72856 151.147 5.83311C151.062 5.88537 150.997 5.92646 150.955 5.95401C150.933 5.96778 150.918 5.97817 150.907 5.98487L150.897 5.99212L150.894 5.9936L150.894 5.99362L150.894 5.99375L150.894 5.99379L150.344 6.36642L150.139 5.7377C150.14 5.74107 150.141 5.74274 150.141 5.74284C150.14 5.74332 150.118 5.69864 150.057 5.62747C149.991 5.55172 149.903 5.4732 149.798 5.41492C149.995 5.64807 150.181 5.9386 150.27 6.27348L150.351 6.58186L150.105 6.78531L150.105 6.78537L150.105 6.78548L150.104 6.78613L150.1 6.79025L150.078 6.80862C150.067 6.81805 150.053 6.83026 150.036 6.84512C150.023 6.85649 150.008 6.86941 149.992 6.88383C149.916 6.95037 149.808 7.04845 149.678 7.17225C149.419 7.42066 149.079 7.76859 148.752 8.16983C148.424 8.57343 148.121 9.01626 147.924 9.45426C147.724 9.89645 147.653 10.2879 147.719 10.6137L147.719 10.6142C147.768 10.852 147.862 10.9899 147.962 11.0781C148.068 11.1714 148.211 11.2364 148.389 11.2733C148.759 11.3498 149.179 11.2855 149.41 11.2341ZM162.748 12.3757C163.289 10.8656 163.736 9.02716 163.745 7.06852C163.228 9.68153 161.961 12.8106 159.285 15.1987L159.284 15.1989C158.238 16.1315 157.059 16.8727 155.755 17.4275L155.727 17.5573C155.676 17.7912 155.612 18.2134 155.688 18.585C155.725 18.7642 155.79 18.9075 155.883 19.0133C155.971 19.1132 156.109 19.2076 156.346 19.2556L156.347 19.2557C156.671 19.3218 157.061 19.2503 157.502 19.0506C157.939 18.8529 158.381 18.5496 158.784 18.2205C159.184 17.8934 159.532 17.5528 159.78 17.2928C159.903 17.1632 160.001 17.0547 160.067 16.9793C160.101 16.9416 160.126 16.9122 160.143 16.8927L160.161 16.871L160.165 16.8661L160.166 16.8653L160.166 16.8652L160.166 16.8651L160.37 16.6183L160.68 16.7009C161.014 16.79 161.304 16.9764 161.536 17.1733C161.478 17.0682 161.399 16.9796 161.324 16.914C161.253 16.8528 161.209 16.8316 161.21 16.8305C161.21 16.8304 161.211 16.8308 161.214 16.8317L160.586 16.6284L160.958 16.0778L160.958 16.0777L160.958 16.0775L160.958 16.0775L160.959 16.0753L160.967 16.0644C160.973 16.0543 160.984 16.0384 160.997 16.0171C161.025 15.9744 161.066 15.9097 161.118 15.8244C161.222 15.6537 161.371 15.4007 161.546 15.0767C161.895 14.4281 162.345 13.4979 162.748 12.3757ZM179.368 -10.9108C179.318 -10.9153 179.202 -10.9154 179.071 -10.8486L179.292 -10.5943C179.156 -10.4451 179.164 -10.2238 179.297 -10.0913L178.943 -9.73762L179.297 -10.0913C179.439 -9.94878 179.669 -9.94817 179.813 -10.0917L179.814 -10.0922C179.944 -10.2219 179.954 -10.4375 179.82 -10.5871L179.771 -10.6417L179.74 -10.708C179.729 -10.7329 179.694 -10.7799 179.623 -10.8254C179.554 -10.8695 179.466 -10.9021 179.368 -10.9108ZM165.556 -4.69072C165.42 -4.44748 165.295 -4.2024 165.18 -3.95654L165.285 -3.65326C165.405 -3.30706 165.742 -2.98501 166.063 -2.94157C166.295 -2.91033 166.783 -3.00448 167.282 -4.11692C168.266 -6.53948 169.768 -8.23909 171.633 -9.75999C168.516 -8.56282 166.66 -6.66835 165.556 -4.69072ZM171.624 1.39048C173.599 0.284329 175.491 -1.5745 176.686 -4.69705C175.169 -2.8306 173.473 -1.32624 171.055 -0.340387C169.944 0.15844 169.849 0.647755 169.88 0.881011C169.924 1.2045 170.246 1.54164 170.59 1.66118L170.892 1.76596C171.137 1.65129 171.382 1.5264 171.624 1.39048Z" fill="#EBEEF3" stroke="#EBEEF3"/>
<path d="M161.879 18.3282C162.581 17.1767 161.612 16.4349 161.372 16.3574C161.372 16.3574 165.457 10.3088 163.886 3.99985C163.885 3.80074 163.877 3.61304 163.865 3.43922C167.18 3.69057 177.07 3.30865 178.333 -9.82331C178.438 -10.3782 178.65 -10.7463 178.922 -10.9307C178.613 -10.5912 178.615 -10.0657 178.943 -9.73762C179.281 -9.39977 179.827 -9.39977 180.166 -9.73762C180.493 -10.0624 180.496 -10.5806 180.193 -10.9201C180.076 -11.1706 179.77 -11.3771 179.413 -11.4089C179.154 -11.4317 178.287 -11.3885 177.999 -9.87308C177.878 -8.62942 177.68 -7.50408 177.415 -6.48401C175.601 -3.95179 173.77 -1.9851 170.858 -0.800184C168.45 0.27701 169.481 1.80548 170.426 2.13354C167.822 3.20828 165.224 3.2091 163.848 3.09975C163.739 1.72061 163.74 -0.881789 164.813 -3.4899C165.14 -2.54246 166.665 -1.51015 167.742 -3.92078C168.924 -6.83736 170.888 -8.67266 173.416 -10.49C174.435 -10.7561 175.558 -10.9535 176.799 -11.0735C178.313 -11.3632 178.356 -12.2315 178.333 -12.4902C178.301 -12.8484 178.095 -13.1544 177.845 -13.2744C177.506 -13.5747 176.988 -13.5714 176.664 -13.2467C176.325 -12.9072 176.326 -12.3588 176.664 -12.0209C176.992 -11.6896 177.517 -11.6888 177.856 -11.9989C177.67 -11.7247 177.306 -11.5158 176.752 -11.4089C163.64 -10.144 163.258 -0.238736 163.508 3.08098C163.336 3.07118 163.148 3.06302 162.949 3.06139C156.652 1.48641 150.614 5.57974 150.614 5.57974C150.536 5.33982 149.794 4.36871 148.645 5.07215C148.645 5.07215 149.587 5.64502 149.786 6.40069C149.786 6.40069 146.847 8.83906 147.229 10.7135C147.502 12.0551 149.016 11.834 149.519 11.7222C148.787 13.6179 148.427 15.7706 148.445 18.1788C146.801 18.1437 145.052 17.9593 143.173 17.5692L142.936 17.5194L142.972 17.7602C142.976 17.792 142.994 17.8622 143.024 17.9666C143.974 21.2864 143.081 23.3967 142.166 24.58L138.237 28.5133L138.356 28.6333L138.475 28.7524L142.403 24.8182C143.585 23.901 145.691 23.0058 149.005 23.9565C149.11 23.9875 149.18 24.0063 149.212 24.0095L149.45 24.0446L149.402 23.8088C149.013 21.9261 148.828 20.1757 148.793 18.5289C151.197 18.5469 153.347 18.1853 155.238 17.4509C155.128 17.956 154.907 19.4747 156.247 19.7456C158.117 20.1267 160.551 17.184 160.551 17.184C161.307 17.3856 161.879 18.3282 161.879 18.3282ZM149.014 23.608C146.171 22.8124 144.188 23.342 142.88 24.1017C143.639 22.792 144.168 20.8065 143.372 17.956C145.167 18.3126 146.852 18.5012 148.435 18.5379C148.472 20.1251 148.659 21.8119 149.014 23.608ZM158.952 14.8256C156.389 17.1098 152.973 18.2164 148.788 18.1845C148.757 13.9925 149.861 10.5699 152.141 8.00424C155.721 3.97945 161.062 3.24827 163.526 3.42127C163.7 5.89065 162.97 11.2399 158.952 14.8256Z" fill="#EBEEF3" stroke="#EBEEF3" stroke-miterlimit="10" stroke-linecap="round"/>
<path d="M151.576 162.227C148.311 159.923 145.167 157.421 142.203 154.764C140.835 154.088 139.809 152.775 139.087 151.601L139.079 151.589L139.072 151.575C138.959 151.365 138.785 151.195 138.541 150.956C138.522 150.938 138.503 150.92 138.484 150.901C138.25 150.672 137.957 150.377 137.779 149.972C132.481 143.884 127.945 136.35 126.862 128.011C126.562 126.825 126.72 125.601 126.883 124.522C127.516 119.572 130.542 115.032 134.876 112.561C137.214 110.678 140.042 109.593 142.726 108.563L142.824 108.525C145.259 107.523 148.06 108.465 149.741 110.337C149.74 110.293 149.74 110.248 149.74 110.203C149.738 110.077 149.735 109.947 149.732 109.812C149.723 109.444 149.713 109.05 149.736 108.667C149.717 105.519 149.722 102.38 149.728 99.2439C149.735 95.3229 149.742 91.4061 149.699 87.4798C143.468 88.6553 137.321 90.2995 131.609 93.0116C129.02 94.3044 126.45 95.7375 124.321 97.596L124.217 97.6865L124.082 97.7112C123.946 97.7359 123.855 97.8213 123.635 98.0832C123.628 98.0911 123.621 98.0991 123.615 98.1074C123.447 98.3074 123.18 98.6268 122.74 98.7451C116.607 104.08 112.73 111.954 112.226 120.1C112.227 120.653 112.227 121.204 112.227 121.754C112.226 122.488 112.226 123.22 112.229 123.953C112.664 131.254 116.317 138.029 121.203 143.404C121.369 143.477 121.594 143.581 121.782 143.727C122.004 143.901 122.21 144.161 122.249 144.528C122.582 145.119 123.206 145.659 123.834 146.088C124.175 146.175 124.39 146.405 124.528 146.588C124.588 146.669 124.646 146.757 124.692 146.828C124.702 146.844 124.712 146.859 124.721 146.873C124.771 146.949 124.809 147.002 124.843 147.042C127.99 149.937 131.42 152.53 135.035 154.822L135.037 154.823C135.187 154.919 135.373 155.06 135.535 155.207C135.617 155.282 135.7 155.364 135.771 155.449C135.837 155.528 135.919 155.638 135.968 155.768C136.015 155.893 136.075 156.168 135.867 156.404C135.695 156.6 135.454 156.624 135.332 156.628C135.07 156.636 134.7 156.556 134.216 156.405C117.145 156.415 100.077 156.421 83.0044 156.402L82.4314 156.401L82.5096 155.834L82.5398 155.615L82.5427 155.593L82.5476 155.572C82.7443 154.71 82.9867 153.864 83.2281 153.033C83.2451 152.974 83.2621 152.916 83.2791 152.857C83.3945 152.46 83.509 152.066 83.6185 151.672C80.7167 153.304 77.8758 155.049 75.0249 156.8L74.742 156.974C71.9491 158.689 69.1448 160.406 66.2749 162.016C66.9725 162.037 67.6759 162.035 68.3895 162.033L151.576 162.227ZM151.576 162.227C151.566 162.228 151.555 162.228 151.544 162.229C151.081 162.258 150.593 162.297 150.103 162.398C142.818 162.558 135.509 162.517 128.213 162.419C125.829 162.198 123.406 162.225 121.014 162.252C119.731 162.266 118.457 162.281 117.203 162.257L117.202 162.257C116.149 162.239 115.112 162.249 114.083 162.259C112.35 162.277 110.64 162.294 108.916 162.175C108.335 162.024 107.752 162.004 107.207 162.009C107.018 162.011 106.837 162.016 106.661 162.021C106.297 162.031 105.955 162.04 105.605 162.022L105.591 162.021L105.578 162.021C99.1701 162.032 92.7662 162.03 86.3618 162.028C80.6195 162.026 74.8768 162.025 69.131 162.032L151.576 162.227Z" fill="#EBEEF3" stroke="#EBEEF3"/>
</svg>
